# xmcd
#
# Track frame offsets: 
#        150
#        12392
#        29285
#        48280
#        63098
#        75230
#        88436
#        102592
#        126944
#        151605
#        164278
#        182633
#
# Disc length: 2692 seconds
#
# Revision: 0
# Processed by: cddbd v1.5.2PL0 Copyright (c) Steve Scherf et al.
# Submitted via: ExactAudioCopy v0.95b4
#
DISCID=8c0a820c
DTITLE=Spirit Family Reunion - Hands Together
DYEAR=2015
DGENRE=Bluegrass
TTITLE0=Wake Up, Rounder
TTITLE1=It Does Not Bother Me
TTITLE2=Fill My Heart With Love
TTITLE3=Skillet Good and Greasy
TTITLE4=Put Your Hands Together When You Spin The Wheel
TTITLE5=How I Long To Take That Ride
TTITLE6=Once Again
TTITLE7=Wait For Me
TTITLE8=Don't Be A Liar
TTITLE9=All The Way Back Home
TTITLE10=Gone, Gone, Gone
TTITLE11=Nighttime In Nevada
EXTD=
EXTT0=
EXTT1=
EXTT2=
EXTT3=
EXTT4=
EXTT5=
EXTT6=
EXTT7=
EXTT8=
EXTT9=
EXTT10=
EXTT11=
PLAYORDER=
